<svg width="60" height="60" viewBox="0 0 60 60" fill="none" xmlns="http://www.w3.org/2000/svg">
<path d="M1.56 5.76001V26.28L57.84 5.76001H1.56Z" fill="#4ECDC4"/>
<path d="M58.08 5.76001H57.84L1.56 26.28V53.16L58.08 32.52V5.76001Z" fill="#46B8B0"/>
<path d="M57.6 55.4399H0.960022V6.11993C0.960022 5.27993 1.68002 4.67993 2.40002 4.67993C3.12002 4.67993 3.84002 5.39993 3.84002 6.11993V52.4399H57.6C58.44 52.4399 59.04 53.1599 59.04 53.8799C59.04 54.5999 58.44 55.4399 57.6 55.4399Z" fill="#031326"/>
<path d="M47.52 30.3601C41.88 30.3601 37.44 34.9201 37.44 40.4401C37.44 45.9601 42 50.5201 47.52 50.5201C53.16 50.5201 57.6 45.9601 57.6 40.4401C57.6 34.9201 53.04 30.3601 47.52 30.3601ZM41.4 40.4401C41.4 39.0001 42.48 37.6801 43.92 37.5601H46.8C46.92 37.5601 47.04 37.4401 47.04 37.3201C47.04 37.2001 46.92 37.0801 46.8 37.0801H44.52C44.52 35.5201 45.84 34.2001 47.4 34.2001C48.96 34.2001 50.28 35.5201 50.28 37.0801V37.2001C50.16 38.7601 48.96 39.9601 47.4 39.9601C45.6 39.9601 44.04 41.4001 43.92 43.2001C42.48 43.2001 41.4 42.0001 41.4 40.4401ZM50.88 43.3201H48.12C48 43.3201 47.88 43.4401 47.88 43.5601C47.88 43.6801 48 43.8001 48.12 43.8001H50.4C50.4 45.3601 49.08 46.6801 47.52 46.6801C45.96 46.6801 44.64 45.3601 44.64 43.8001V43.6801C44.76 42.1201 45.96 40.9201 47.52 40.9201C49.32 40.9201 50.88 39.4801 51 37.6801C52.44 37.8001 53.64 39.0001 53.64 40.5601C53.64 42.0001 52.32 43.3201 50.88 43.3201Z" fill="#031326"/>
<path d="M47.64 45.1199C47.64 45.3599 47.88 45.5999 48.12 45.5999C48.36 45.5999 48.6 45.3599 48.6 45.1199C48.6 44.8799 48.36 44.6399 48.12 44.6399C47.88 44.5199 47.64 44.7599 47.64 45.1199ZM47.28 35.8799C47.28 35.6399 47.04 35.3999 46.8 35.3999C46.56 35.3999 46.32 35.6399 46.32 35.8799C46.32 36.1199 46.56 36.3599 46.8 36.3599C47.04 36.3599 47.28 36.1199 47.28 35.8799ZM54 11.3999C52.44 11.3999 51.24 12.5999 51.24 14.1599C51.24 14.8799 51.48 15.4799 51.96 16.0799L47.52 22.5599C47.04 22.1999 46.44 21.9599 45.84 21.9599C44.88 21.9599 44.16 22.4399 43.68 23.0399L40.44 21.9599C40.32 20.5199 39.12 19.3199 37.68 19.3199C36.12 19.3199 34.92 20.5199 34.92 22.0799C34.92 22.5599 35.04 23.0399 35.28 23.5199L29.4 30.5999C29.04 30.4799 28.68 30.3599 28.2 30.3599C26.64 30.3599 25.44 31.5599 25.44 33.1199C25.44 33.5999 25.56 34.0799 25.8 34.4399L21 39.5999C20.52 39.2399 20.04 39.1199 19.44 39.1199C18.84 39.1199 18.24 39.3599 17.88 39.5999L14.52 37.1999C14.64 36.8399 14.76 36.5999 14.76 36.2399C14.76 34.6799 13.56 33.4799 12 33.4799C10.44 33.4799 9.24002 34.6799 9.24002 36.2399C9.24002 36.7199 9.36002 37.0799 9.60002 37.5599L1.92002 45.7199C1.56002 46.0799 1.56002 46.6799 1.92002 47.0399C2.04002 47.1599 2.28002 47.2799 2.52002 47.2799C2.76002 47.2799 3.00002 47.1599 3.12002 47.0399L10.8 38.8799C11.16 38.9999 11.52 39.1199 12 39.1199C12.48 39.1199 12.96 38.9999 13.44 38.7599L17.04 41.2799C16.8 41.3999 16.8 41.6399 16.8 41.9999C16.8 43.5599 18 44.7599 19.56 44.7599C21.12 44.7599 22.32 43.5599 22.32 41.9999C22.32 41.7599 22.32 41.5199 22.2 41.2799L27.36 35.7599C27.72 35.8799 28.08 35.9999 28.44 35.9999C30 35.9999 31.2 34.7999 31.2 33.2399C31.2 32.7599 31.08 32.3999 30.84 32.0399L36.72 24.8399C37.08 24.9599 37.32 25.0799 37.68 25.0799C38.64 25.0799 39.48 24.5999 39.96 23.8799L43.08 24.8399C43.08 26.2799 44.28 27.5999 45.84 27.5999C47.4 27.5999 48.6 26.3999 48.6 24.8399V24.2399L53.52 16.9199H54C55.56 16.9199 56.76 15.7199 56.76 14.1599C56.76 12.5999 55.56 11.3999 54 11.3999ZM11.88 37.3199C11.4 37.3199 10.92 36.8399 10.92 36.3599C10.92 35.8799 11.4 35.3999 11.88 35.3999C12.36 35.3999 12.84 35.8799 12.84 36.3599C12.84 36.8399 12.48 37.3199 11.88 37.3199ZM19.56 42.9599C19.08 42.9599 18.6 42.4799 18.6 41.9999C18.6 41.5199 19.08 41.0399 19.56 41.0399C20.04 41.0399 20.52 41.5199 20.52 41.9999C20.52 42.4799 20.04 42.9599 19.56 42.9599ZM28.44 34.1999C27.96 34.1999 27.48 33.7199 27.48 33.2399C27.48 32.7599 27.96 32.2799 28.44 32.2799C28.92 32.2799 29.4 32.7599 29.4 33.2399C29.4 33.7199 28.92 34.1999 28.44 34.1999ZM37.8 23.1599C37.32 23.1599 36.84 22.6799 36.84 22.1999C36.84 21.7199 37.32 21.2399 37.8 21.2399C38.28 21.2399 38.76 21.7199 38.76 22.1999C38.76 22.7999 38.28 23.1599 37.8 23.1599ZM45.96 25.6799C45.48 25.6799 45 25.1999 45 24.7199C45 24.2399 45.48 23.7599 45.96 23.7599C46.44 23.7599 46.92 24.2399 46.92 24.7199C46.92 25.1999 46.44 25.6799 45.96 25.6799ZM54 15.1199C53.52 15.1199 53.04 14.6399 53.04 14.1599C53.04 13.6799 53.52 13.1999 54 13.1999C54.48 13.1999 54.96 13.6799 54.96 14.1599C54.96 14.6399 54.6 15.1199 54 15.1199Z" fill="#031326"/>
</svg>
